{
    "asset" : {
        "generator" : "Khronos glTF Blender I/O v1.3.48",
        "version" : "2.0"
    },
    "scene" : 0,
    "scenes" : [
        {
            "name" : "Scene",
            "nodes" : [
                0
            ]
        }
    ],
    "nodes" : [
        {
            "mesh" : 0,
            "name" : "Bed frame",
            "rotation" : [
                0.0064902291633188725,
                0.6481103897094727,
                0.014732664451003075,
                0.7613762617111206
            ],
            "scale" : [
                0.5167104005813599,
                0.5167104005813599,
                0.5167104601860046
            ],
            "translation" : [
                -0.24331504106521606,
                0.08772297203540802,
                -4.960301399230957
            ]
        }
    ],
    "materials" : [
        {
            "doubleSided" : true,
            "emissiveFactor" : [
                0,
                0,
                0
            ],
            "name" : "Material.002",
            "pbrMetallicRoughness" : {
                "baseColorFactor" : [
                    0.981611430644989,
                    0.9067515730857849,
                    1,
                    1
                ],
                "metallicFactor" : 0,
                "roughnessFactor" : 0.5
            }
        },
        {
            "doubleSided" : true,
            "emissiveFactor" : [
                0,
                0,
                0
            ],
            "name" : "Material.001",
            "pbrMetallicRoughness" : {
                "baseColorFactor" : [
                    0.028651632368564606,
                    0.033306512981653214,
                    0.8000000715255737,
                    1
                ],
                "metallicFactor" : 0,
                "roughnessFactor" : 0.5
            }
        }
    ],
    "meshes" : [
        {
            "name" : "Cube.001",
            "primitives" : [
                {
                    "attributes" : {
                        "POSITION" : 0,
                        "NORMAL" : 1,
                        "TEXCOORD_0" : 2
                    },
                    "indices" : 3,
                    "material" : 0
                },
                {
                    "attributes" : {
                        "POSITION" : 4,
                        "NORMAL" : 5,
                        "TEXCOORD_0" : 6
                    },
                    "indices" : 7,
                    "material" : 1
                }
            ]
        }
    ],
    "accessors" : [
        {
            "bufferView" : 0,
            "componentType" : 5126,
            "count" : 1798,
            "max" : [
                2.956099033355713,
                1.8839689493179321,
                2.1426892280578613
            ],
            "min" : [
                -2.956099033355713,
                -1.4599695205688477,
                -2.1363000869750977
            ],
            "type" : "VEC3"
        },
        {
            "bufferView" : 1,
            "componentType" : 5126,
            "count" : 1798,
            "type" : "VEC3"
        },
        {
            "bufferView" : 2,
            "componentType" : 5126,
            "count" : 1798,
            "type" : "VEC2"
        },
        {
            "bufferView" : 3,
            "componentType" : 5123,
            "count" : 2832,
            "type" : "SCALAR"
        },
        {
            "bufferView" : 4,
            "componentType" : 5126,
            "count" : 278,
            "max" : [
                2.7357969284057617,
                1.1529046297073364,
                1.856062412261963
            ],
            "min" : [
                -2.757730722427368,
                0.08267989754676819,
                -1.9152684211730957
            ],
            "type" : "VEC3"
        },
        {
            "bufferView" : 5,
            "componentType" : 5126,
            "count" : 278,
            "type" : "VEC3"
        },
        {
            "bufferView" : 6,
            "componentType" : 5126,
            "count" : 278,
            "type" : "VEC2"
        },
        {
            "bufferView" : 7,
            "componentType" : 5123,
            "count" : 972,
            "type" : "SCALAR"
        }
    ],
    "bufferViews" : [
        {
            "buffer" : 0,
            "byteLength" : 21576,
            "byteOffset" : 0
        },
        {
            "buffer" : 0,
            "byteLength" : 21576,
            "byteOffset" : 21576
        },
        {
            "buffer" : 0,
            "byteLength" : 14384,
            "byteOffset" : 43152
        },
        {
            "buffer" : 0,
            "byteLength" : 5664,
            "byteOffset" : 57536
        },
        {
            "buffer" : 0,
            "byteLength" : 3336,
            "byteOffset" : 63200
        },
        {
            "buffer" : 0,
            "byteLength" : 3336,
            "byteOffset" : 66536
        },
        {
            "buffer" : 0,
            "byteLength" : 2224,
            "byteOffset" : 69872
        },
        {
            "buffer" : 0,
            "byteLength" : 1944,
            "byteOffset" : 72096
        }
    ],
    "buffers" : [
        {
            "byteLength" : 74040,
            "uri" : "data:application/octet-stream;base64,"
        }
    ]
}
