{
    "asset" : {
        "generator" : "Khronos glTF Blender I/O v1.3.48",
        "version" : "2.0"
    },
    "scene" : 0,
    "scenes" : [
        {
            "name" : "Scene",
            "nodes" : [
                0
            ]
        }
    ],
    "nodes" : [
        {
            "mesh" : 0,
            "name" : "Cube",
            "scale" : [
                0.6233813762664795,
                0.10489474982023239,
                0.3316367268562317
            ],
            "translation" : [
                0,
                0.3185117542743683,
                -4.493347644805908
            ]
        }
    ],
    "materials" : [
        {
            "doubleSided" : true,
            "emissiveFactor" : [
                0,
                0,
                0
            ],
            "name" : "Material",
            "pbrMetallicRoughness" : {
                "baseColorFactor" : [
                    0.8000000715255737,
                    0.09361818432807922,
                    0.6554768681526184,
                    1
                ],
                "metallicFactor" : 0,
                "roughnessFactor" : 0.4000000059604645
            }
        },
        {
            "doubleSided" : true,
            "emissiveFactor" : [
                0,
                0,
                0
            ],
            "name" : "Material.001",
            "pbrMetallicRoughness" : {
                "baseColorFactor" : [
                    0.8000000715255737,
                    0.3614799976348877,
                    0.1765860617160797,
                    1
                ],
                "metallicFactor" : 0,
                "roughnessFactor" : 0.5
            }
        }
    ],
    "meshes" : [
        {
            "name" : "Cube",
            "primitives" : [
                {
                    "attributes" : {
                        "POSITION" : 0,
                        "NORMAL" : 1,
                        "TEXCOORD_0" : 2
                    },
                    "indices" : 3,
                    "material" : 0
                },
                {
                    "attributes" : {
                        "POSITION" : 4,
                        "NORMAL" : 5,
                        "TEXCOORD_0" : 6
                    },
                    "indices" : 7,
                    "material" : 1
                }
            ]
        }
    ],
    "accessors" : [
        {
            "bufferView" : 0,
            "componentType" : 5126,
            "count" : 507,
            "max" : [
                1.218268871307373,
                6.343934059143066,
                1
            ],
            "min" : [
                -1.2380880117416382,
                -0.8195258975028992,
                -1.0676708221435547
            ],
            "type" : "VEC3"
        },
        {
            "bufferView" : 1,
            "componentType" : 5126,
            "count" : 507,
            "type" : "VEC3"
        },
        {
            "bufferView" : 2,
            "componentType" : 5126,
            "count" : 507,
            "type" : "VEC2"
        },
        {
            "bufferView" : 3,
            "componentType" : 5123,
            "count" : 858,
            "type" : "SCALAR"
        },
        {
            "bufferView" : 4,
            "componentType" : 5126,
            "count" : 20,
            "max" : [
                0.7894806265830994,
                5.471494674682617,
                1
            ],
            "min" : [
                -0.7894806265830994,
                1.039780616760254,
                -0.4602094888687134
            ],
            "type" : "VEC3"
        },
        {
            "bufferView" : 5,
            "componentType" : 5126,
            "count" : 20,
            "type" : "VEC3"
        },
        {
            "bufferView" : 6,
            "componentType" : 5126,
            "count" : 20,
            "type" : "VEC2"
        },
        {
            "bufferView" : 7,
            "componentType" : 5123,
            "count" : 30,
            "type" : "SCALAR"
        }
    ],
    "bufferViews" : [
        {
            "buffer" : 0,
            "byteLength" : 6084,
            "byteOffset" : 0
        },
        {
            "buffer" : 0,
            "byteLength" : 6084,
            "byteOffset" : 6084
        },
        {
            "buffer" : 0,
            "byteLength" : 4056,
            "byteOffset" : 12168
        },
        {
            "buffer" : 0,
            "byteLength" : 1716,
            "byteOffset" : 16224
        },
        {
            "buffer" : 0,
            "byteLength" : 240,
            "byteOffset" : 17940
        },
        {
            "buffer" : 0,
            "byteLength" : 240,
            "byteOffset" : 18180
        },
        {
            "buffer" : 0,
            "byteLength" : 160,
            "byteOffset" : 18420
        },
        {
            "buffer" : 0,
            "byteLength" : 60,
            "byteOffset" : 18580
        }
    ],
    "buffers" : [
        {
            "byteLength" : 18640,
            "uri" : "data:application/octet-stream;base64,"
        }
    ]
}
