{
    "asset" : {
        "generator" : "Khronos glTF Blender I/O v1.3.48",
        "version" : "2.0"
    },
    "scene" : 0,
    "scenes" : [
        {
            "name" : "Scene",
            "nodes" : [
                0
            ]
        }
    ],
    "nodes" : [
        {
            "mesh" : 0,
            "name" : "Cube",
            "rotation" : [
                0,
                -0.7071068286895752,
                0,
                0.7071068286895752
            ],
            "scale" : [
                0.5020726919174194,
                0.6656491756439209,
                0.42182788252830505
            ],
            "translation" : [
                -0.03501558303833008,
                0.7871856689453125,
                -2.306805372238159
            ]
        }
    ],
    "materials" : [
        {
            "doubleSided" : true,
            "emissiveFactor" : [
                0,
                0,
                0
            ],
            "name" : "Material",
            "pbrMetallicRoughness" : {
                "baseColorFactor" : [
                    0.09083762764930725,
                    0.09083762764930725,
                    0.09083762764930725,
                    1
                ],
                "metallicFactor" : 0,
                "roughnessFactor" : 0.4000000059604645
            }
        },
        {
            "doubleSided" : true,
            "emissiveFactor" : [
                0,
                0,
                0
            ],
            "name" : "Speaker",
            "pbrMetallicRoughness" : {
                "baseColorFactor" : [
                    0.01699342206120491,
                    0.39227530360221863,
                    0.8000000715255737,
                    1
                ],
                "metallicFactor" : 0,
                "roughnessFactor" : 0.5
            }
        },
        {
            "doubleSided" : true,
            "emissiveFactor" : [
                0,
                0,
                0
            ],
            "name" : "Material.001",
            "pbrMetallicRoughness" : {
                "baseColorFactor" : [
                    0.06661283224821091,
                    0.08245991170406342,
                    0.8000000715255737,
                    1
                ],
                "metallicFactor" : 0,
                "roughnessFactor" : 0.5
            }
        },
        {
            "doubleSided" : true,
            "emissiveFactor" : [
                0,
                0,
                0
            ],
            "name" : "Material.002",
            "pbrMetallicRoughness" : {
                "baseColorFactor" : [
                    0.4672008454799652,
                    0.4672008454799652,
                    0.4672008454799652,
                    1
                ],
                "metallicFactor" : 0,
                "roughnessFactor" : 0.5
            }
        }
    ],
    "meshes" : [
        {
            "name" : "Cube",
            "primitives" : [
                {
                    "attributes" : {
                        "POSITION" : 0,
                        "NORMAL" : 1,
                        "TEXCOORD_0" : 2
                    },
                    "indices" : 3,
                    "material" : 0
                },
                {
                    "attributes" : {
                        "POSITION" : 4,
                        "NORMAL" : 5,
                        "TEXCOORD_0" : 6
                    },
                    "indices" : 7,
                    "material" : 1
                },
                {
                    "attributes" : {
                        "POSITION" : 8,
                        "NORMAL" : 9,
                        "TEXCOORD_0" : 10
                    },
                    "indices" : 11,
                    "material" : 2
                },
                {
                    "attributes" : {
                        "POSITION" : 12,
                        "NORMAL" : 13,
                        "TEXCOORD_0" : 14
                    },
                    "indices" : 15,
                    "material" : 3
                }
            ]
        }
    ],
    "accessors" : [
        {
            "bufferView" : 0,
            "componentType" : 5126,
            "count" : 654,
            "max" : [
                1.065739631652832,
                1,
                1
            ],
            "min" : [
                -1,
                -1,
                -1
            ],
            "type" : "VEC3"
        },
        {
            "bufferView" : 1,
            "componentType" : 5126,
            "count" : 654,
            "type" : "VEC3"
        },
        {
            "bufferView" : 2,
            "componentType" : 5126,
            "count" : 654,
            "type" : "VEC2"
        },
        {
            "bufferView" : 3,
            "componentType" : 5123,
            "count" : 1863,
            "type" : "SCALAR"
        },
        {
            "bufferView" : 4,
            "componentType" : 5126,
            "count" : 72,
            "max" : [
                1.065739631652832,
                0.9364850521087646,
                0.6782172918319702
            ],
            "min" : [
                0.07905923575162888,
                -0.08126889169216156,
                -0.7569143772125244
            ],
            "type" : "VEC3"
        },
        {
            "bufferView" : 5,
            "componentType" : 5126,
            "count" : 72,
            "type" : "VEC3"
        },
        {
            "bufferView" : 6,
            "componentType" : 5126,
            "count" : 72,
            "type" : "VEC2"
        },
        {
            "bufferView" : 7,
            "componentType" : 5123,
            "count" : 108,
            "type" : "SCALAR"
        },
        {
            "bufferView" : 8,
            "componentType" : 5126,
            "count" : 143,
            "max" : [
                0.8258389234542847,
                0.4363884925842285,
                0.4006463885307312
            ],
            "min" : [
                0.07905923575162888,
                -0.6511198282241821,
                -0.3223447799682617
            ],
            "type" : "VEC3"
        },
        {
            "bufferView" : 9,
            "componentType" : 5126,
            "count" : 143,
            "type" : "VEC3"
        },
        {
            "bufferView" : 10,
            "componentType" : 5126,
            "count" : 143,
            "type" : "VEC2"
        },
        {
            "bufferView" : 11,
            "componentType" : 5123,
            "count" : 255,
            "type" : "SCALAR"
        },
        {
            "bufferView" : 12,
            "componentType" : 5126,
            "count" : 84,
            "max" : [
                0.8745434880256653,
                -0.13666227459907532,
                0.7160493731498718
            ],
            "min" : [
                0.8258389234542847,
                -0.7991151809692383,
                -0.6361396312713623
            ],
            "type" : "VEC3"
        },
        {
            "bufferView" : 13,
            "componentType" : 5126,
            "count" : 84,
            "type" : "VEC3"
        },
        {
            "bufferView" : 14,
            "componentType" : 5126,
            "count" : 84,
            "type" : "VEC2"
        },
        {
            "bufferView" : 15,
            "componentType" : 5123,
            "count" : 126,
            "type" : "SCALAR"
        }
    ],
    "bufferViews" : [
        {
            "buffer" : 0,
            "byteLength" : 7848,
            "byteOffset" : 0
        },
        {
            "buffer" : 0,
            "byteLength" : 7848,
            "byteOffset" : 7848
        },
        {
            "buffer" : 0,
            "byteLength" : 5232,
            "byteOffset" : 15696
        },
        {
            "buffer" : 0,
            "byteLength" : 3726,
            "byteOffset" : 20928
        },
        {
            "buffer" : 0,
            "byteLength" : 864,
            "byteOffset" : 24656
        },
        {
            "buffer" : 0,
            "byteLength" : 864,
            "byteOffset" : 25520
        },
        {
            "buffer" : 0,
            "byteLength" : 576,
            "byteOffset" : 26384
        },
        {
            "buffer" : 0,
            "byteLength" : 216,
            "byteOffset" : 26960
        },
        {
            "buffer" : 0,
            "byteLength" : 1716,
            "byteOffset" : 27176
        },
        {
            "buffer" : 0,
            "byteLength" : 1716,
            "byteOffset" : 28892
        },
        {
            "buffer" : 0,
            "byteLength" : 1144,
            "byteOffset" : 30608
        },
        {
            "buffer" : 0,
            "byteLength" : 510,
            "byteOffset" : 31752
        },
        {
            "buffer" : 0,
            "byteLength" : 1008,
            "byteOffset" : 32264
        },
        {
            "buffer" : 0,
            "byteLength" : 1008,
            "byteOffset" : 33272
        },
        {
            "buffer" : 0,
            "byteLength" : 672,
            "byteOffset" : 34280
        },
        {
            "buffer" : 0,
            "byteLength" : 252,
            "byteOffset" : 34952
        }
    ],
    "buffers" : [
        {
            "byteLength" : 35204,
            "uri" : "data:application/octet-stream;base64,"
        }
    ]
}
